<svg width="325" height="370" viewBox="0 0 325 370" fill="none" xmlns="http://www.w3.org/2000/svg">
<path d="M310.319 2H14C7.37258 2 2 7.37257 2 14V310.319C2 316.947 7.37257 322.319 14 322.319H310.319C316.947 322.319 322.319 316.947 322.319 310.319V14C322.319 7.37258 316.947 2 310.319 2Z" stroke="black" stroke-width="4" stroke-miterlimit="10"/>
<path d="M107.923 192.33C109.307 192.419 115.784 192.867 125.255 193.535C128.847 187.645 133.233 177.132 132.249 161.919C132.071 159.399 137.339 174.065 134.057 194.154C152.358 195.429 177.256 197.155 199.013 198.454C199.822 189.97 200.957 182.148 200.957 182.148C201.424 188.31 202.481 193.897 203.745 198.757C206.719 198.959 209.639 199.099 212.434 199.258C212.399 186.032 215.7 163.139 215.7 163.139C216.94 179.224 221.466 192.233 224.806 199.927C238.627 200.607 247.733 200.802 247.177 200.121C227.36 175.188 243.304 162.078 238.324 140.691C232.344 115.061 210.712 110.042 212.228 91.0688C213.422 75.6298 216.629 47.66 197.372 40.7706C197.372 40.7706 182.279 22.6412 156.887 31.0819C125.477 41.4938 135.515 89.7391 132.965 99.3423C129.337 113.063 122.518 117.643 116.869 133.218C111.111 148.98 117.911 159.928 118.241 170.81C118.533 181.693 104.455 192.14 107.923 192.33Z" fill="black"/>
<path d="M247.954 196.731C245.361 192.322 243.082 187.695 241.862 182.886C240.497 178.1 241.403 173.302 242.585 168.368C243.759 163.458 245.124 158.443 245.827 153.206C246.469 147.988 246.531 142.471 245.03 137.214C243.623 131.95 240.847 127.102 237.332 123.117C233.86 119.069 229.817 115.757 225.921 112.491C222.064 109.19 218.215 105.924 215.4 101.819C212.516 97.7714 210.875 92.8687 210.49 87.7444C210.051 92.8531 211.17 98.2146 213.814 102.81C216.419 107.437 220.171 111.231 223.892 114.754C227.612 118.3 231.364 121.686 234.459 125.512C237.531 129.334 239.933 133.603 241.111 138.264C242.305 142.91 242.48 147.821 241.901 152.739C241.391 157.673 240.24 162.607 239.338 167.708C238.911 170.262 238.514 172.867 238.479 175.561C238.429 178.259 238.985 181.024 239.867 183.496C241.749 188.45 244.579 192.855 247.954 196.731Z" fill="black"/>
<path d="M138.622 48.0251C135.951 53.7754 134.769 60.0894 133.579 66.2829C132.506 72.5191 131.74 78.7943 131.044 85.0461L129.944 94.3771C129.57 97.4952 129.042 100.415 128.124 103.261C126.328 108.98 122.856 113.883 118.96 118.852C117.067 121.375 115.146 124.007 113.54 126.88C111.931 129.746 110.609 132.802 109.68 135.959C108.84 139.158 108.233 142.304 107.884 145.542C107.518 148.773 107.541 152.097 107.969 155.336C108.385 158.586 109.155 161.673 109.777 164.698C110.411 167.715 110.764 170.794 110.807 173.835C110.994 179.873 107.537 185.732 102.487 189.449C108.035 186.49 112.273 180.584 112.763 173.916C113 170.674 112.813 167.451 112.394 164.267C111.989 161.086 111.336 158.03 111.13 155.009C110.648 149.022 111.69 142.848 113.389 137.074C114.334 134.225 115.504 131.472 117.012 128.871C118.501 126.258 120.325 123.813 122.23 121.324C124.104 118.821 126.06 116.247 127.751 113.432C129.438 110.621 130.885 107.592 131.825 104.412C132.751 101.235 133.233 97.9229 133.509 94.7814C133.832 91.6167 134.03 88.4674 134.228 85.326C134.648 79.047 134.979 72.7796 135.566 66.5434C136.087 60.2994 136.837 54.0709 138.622 48.0251Z" fill="black"/>
<path d="M139.197 151.207C100.287 194.985 53.1691 285.263 63.7248 302.518C75.4858 321.736 131.624 259.397 129.691 256.574C128.051 254.175 146.301 200.172 159.555 160.682C172.793 121.227 148.82 140.379 139.197 151.207Z" fill="#D3766A"/>
<path d="M139.197 151.207C100.287 194.985 53.1691 285.263 63.7248 302.518C75.4858 321.736 131.624 259.397 129.691 256.574C128.051 254.175 146.301 200.172 159.555 160.682C172.793 121.227 148.82 140.379 139.197 151.207Z" fill="black" stroke="white" stroke-width="2" stroke-miterlimit="10"/>
<path d="M144.434 205.984C140.64 217.504 137.156 228.309 134.512 236.944C128.498 237.212 110.909 236.24 92.6316 218.678C98.1252 208.935 104.074 199.149 110.205 189.803C114.801 194.643 125.951 204.079 144.434 205.984Z" fill="black" stroke="white" stroke-width="1.25833" stroke-miterlimit="10"/>
<path d="M158.427 139.269C166.054 133.734 175.128 133.456 183.282 135.84C191.459 138.23 198.557 143.256 202.112 148.072C212.639 162.34 220.517 182.387 227.247 210.706C233.922 238.791 239.446 274.925 245.337 321.479H102.813L112.419 256.409L112.47 256.066L112.297 255.766C112.297 255.765 112.297 255.764 112.296 255.763C112.294 255.76 112.291 255.756 112.288 255.75C112.281 255.738 112.271 255.72 112.257 255.695C112.229 255.646 112.187 255.57 112.133 255.471C112.023 255.271 111.862 254.974 111.66 254.587C111.256 253.813 110.687 252.683 110.031 251.264C108.719 248.424 107.065 244.437 105.691 239.849C102.931 230.625 101.373 219.18 105.759 209.705V209.704C108.011 204.825 116.974 190.259 127.528 175.334C132.796 167.885 138.443 160.372 143.823 153.96C149.216 147.532 154.295 142.269 158.427 139.269Z" fill="white" stroke="black" stroke-width="2"/>
<path d="M130.162 168.991C126.946 173.403 123.824 177.878 120.757 182.396C121.593 180.639 122.436 178.885 123.261 177.124C123.319 176.996 123.132 176.891 123.07 177.019C121.927 179.227 120.877 181.467 119.855 183.718C115.753 189.791 111.772 195.946 107.93 202.182C106.301 204.83 104.805 207.524 103.704 210.44C102.639 213.262 101.978 216.233 101.628 219.223C101.278 222.22 101.251 225.233 101.484 228.239C101.721 231.337 102.099 234.405 102.791 237.434C103.576 240.851 104.645 244.253 106.029 247.48C106.71 249.063 107.437 250.637 108.218 252.177C108.934 253.58 110.388 256.446 110.368 256.555C110.077 258.141 109.777 259.253 109.575 260.586C109.369 261.943 109.167 263.304 108.961 264.661C108.553 267.379 105.022 293.824 104.626 296.546C103.836 301.946 103.156 307.35 102.483 312.766C102.095 315.873 101.892 319.007 101.457 322.109C101.438 322.234 101.628 322.284 101.651 322.156C102.099 319.454 102.767 316.79 103.257 314.1C103.747 311.406 104.249 308.707 104.754 306.013C105.777 300.57 109.707 271.348 110.559 265.874C110.796 264.362 111.029 262.845 111.266 261.333C111.5 259.828 111.904 257.807 111.846 256.282C111.846 256.282 106.997 246.318 105.112 239.335C104.322 236.403 103.514 233.351 103.183 230.331C102.861 227.356 102.829 224.363 103.074 221.384C103.319 218.406 103.879 215.447 104.793 212.602C105.734 209.662 107.087 206.929 108.599 204.242C111.764 198.617 115.131 193.096 118.541 187.614C122.409 181.401 126.324 175.211 130.325 169.084C130.395 168.979 130.232 168.897 130.162 168.991Z" fill="black"/>
<path d="M63.7247 302.518C73.6584 315.263 98.961 316.472 162.377 325.503C171.152 326.752 196.634 267.192 187.33 265.377C175.612 263.09 129.645 256.753 126.223 256.71C97.3787 256.384 56.9869 293.871 63.7247 302.518Z" fill="black"/>
<path d="M174.624 263.164C174.624 263.164 201.428 265.8 215.082 271.543C233.367 279.233 245.983 293.401 250.913 299.66C261.205 312.72 277.056 351.413 266.706 357.921C257.34 363.815 243.133 323.447 243.133 323.447C243.133 323.447 264.408 362.213 251.827 367.237C239.245 372.26 225.42 324.458 225.42 324.458C225.42 324.458 246.388 364.779 232.589 367.905C222.166 370.269 207.205 327.681 207.205 327.681C207.205 327.681 224.985 362.466 214.37 365.355C202.641 368.551 186.366 330.107 186.366 330.107C158.143 332.914 143.556 322.704 134.046 314.209C131.748 312.152 174.624 263.164 174.624 263.164Z" fill="white" stroke="black" stroke-width="2.5" stroke-miterlimit="10"/>
<path d="M236.641 309.567C239.304 314.03 242.033 318.529 244.288 323.218C246.547 327.903 248.643 332.669 250.454 337.545C254.898 349.5 255.812 357.68 255.699 357.183C253.063 345.379 245.241 328.482 242.982 323.793C240.727 319.12 238.709 314.33 236.458 309.649C236.403 309.528 236.578 309.462 236.641 309.567Z" fill="black"/>
<path d="M219.573 317.413C222.726 323.26 226.073 328.948 228.97 334.936C231.851 340.896 234.067 346.802 236.532 352.941C236.722 353.415 236.403 353.361 236.194 352.894C233.484 346.856 230.513 341.483 227.737 335.476C224.969 329.492 222.411 323.353 219.425 317.475C219.382 317.385 219.526 317.323 219.573 317.413Z" fill="black"/>
<path d="M203.718 321.514C208.998 330.204 212.668 339.854 216.039 349.41C216.206 349.885 215.806 349.772 215.607 349.298C211.684 339.947 208.675 332.583 203.415 321.701C203.333 321.526 203.605 321.328 203.718 321.514Z" fill="black"/>
<path d="M108.344 261.278C115.662 258.632 122.053 257.265 126.051 257.614C134.497 258.349 151.673 260.101 166.746 261.669C174.281 262.453 181.287 263.192 186.409 263.734C188.97 264.005 191.061 264.226 192.511 264.38C192.642 264.394 192.769 264.407 192.89 264.42L142.231 324.029C142.145 324.022 142.048 324.015 141.94 324.007C141.419 323.966 140.652 323.904 139.672 323.818C137.713 323.646 134.903 323.38 131.505 323.001C124.706 322.244 115.562 321.041 106.168 319.253C96.7654 317.464 87.1516 315.096 79.3965 312.023C75.519 310.486 72.1378 308.786 69.4893 306.914C66.8339 305.038 64.9796 303.034 64.0537 300.916C62.2304 296.744 63.7914 291.921 67.916 286.827C72.0152 281.765 78.4553 276.697 85.7402 272.22C93.0136 267.75 101.068 263.908 108.344 261.278Z" fill="black" stroke="white" stroke-width="2"/>
<path d="M98.6655 264.754C102.763 261.955 114.408 255.303 126.138 256.617C126.27 256.632 126.274 256.819 126.142 256.823C116.523 257.118 102.962 262.534 98.7705 264.921C98.6577 264.984 98.5644 264.824 98.6655 264.754Z" fill="black"/>
<path d="M131.624 314.446C152.144 292.712 170.414 266.756 173.921 262.46C174.088 262.258 173.738 262.013 173.582 262.227C170.363 266.62 146.266 294.019 131.254 314.189C131.079 314.423 131.429 314.656 131.624 314.446Z" fill="black"/>
<path d="M213.344 161.199C255.279 214.561 271.099 310.422 247.822 317.895C226.555 324.722 139.085 302.833 113.028 293.984C105.376 291.383 129.011 231.882 137.199 234.654C147.094 238.001 201.191 250.82 202.24 250.843C204.488 250.894 192.466 191.875 187.307 165.134C180.122 127.872 197.598 141.157 213.344 161.199Z" fill="white" stroke="black" stroke-width="1.25833" stroke-miterlimit="10"/>
<path d="M67.2745 212.294C62.8461 217.318 66.4308 223.255 66.4308 223.255C66.4308 223.255 61.2637 224.635 58.6316 229.048C55.6184 234.102 62.2202 241.042 62.2202 241.042C62.2202 241.042 57.2786 243.522 54.9692 248.46C52.5703 253.588 58.2311 261.539 58.2311 261.539C58.2311 261.539 54.8992 266.376 55.9645 272.079C57.784 281.83 71.8856 287.363 80.8162 290.971C89.7428 294.579 118.447 296.453 123.883 297.362L147.537 240.26C147.537 240.26 112.106 212.687 101.006 209.938C91.6518 207.621 72.2432 206.657 67.2745 212.294Z" fill="white" stroke="black" stroke-width="2.5" stroke-miterlimit="10"/>
<path d="M67.2045 222.5C77.7369 222.578 87.6745 225.77 97.7715 228.391C97.997 228.449 97.8998 228.799 97.6781 228.741C87.6667 226.019 77.2393 225.319 67.1423 222.998C66.8585 222.936 66.9207 222.5 67.2045 222.5Z" fill="black"/>
<path d="M62.7101 240.369C65.0934 240.459 67.4378 241.334 69.6928 242.041C72.1227 242.803 74.5333 243.608 76.936 244.448C81.7454 246.131 86.5159 247.924 91.2319 249.856C91.4419 249.941 91.3602 250.284 91.1386 250.206C86.3448 248.538 81.5238 246.94 76.66 245.474C74.2261 244.739 71.7884 244.028 69.3429 243.332C67.0684 242.683 64.619 242.189 62.5273 241.046C62.2241 240.875 62.3524 240.358 62.7101 240.369Z" fill="black"/>
<path d="M58.4373 261.605C60.5095 261.601 62.7257 262.729 64.6424 263.444C66.8158 264.257 68.9969 265.057 71.1819 265.847C75.5481 267.421 79.9181 268.996 84.3348 270.419C84.5564 270.489 84.4631 270.839 84.2415 270.769C79.7432 269.346 75.2293 267.985 70.7426 266.519C68.5381 265.8 66.3415 265.069 64.1487 264.327C62.2824 263.697 59.8797 263.117 58.3517 261.819C58.2623 261.749 58.3323 261.605 58.4373 261.605Z" fill="black"/>
<path d="M201.459 248.425C202.135 248.021 189.569 191.059 185.355 161.331C181.14 131.608 194.418 134.462 213.519 159.873C233.981 187.093 270.415 260.777 257.795 315.336C253.709 333.003 127.129 308.253 127.129 308.253L144.186 235.502C144.182 235.505 200.409 249.051 201.459 248.425Z" fill="black" stroke="white" stroke-width="2" stroke-miterlimit="10"/>
<path d="M253.036 243.025C232.391 249.082 210.008 246.007 200.871 244.288C199.55 237.138 196.346 221.645 193.08 204.9C214.771 207.302 229.491 204.208 237.531 201.513C243.406 214.211 248.911 228.379 253.036 243.025Z" fill="black" stroke="white" stroke-width="2" stroke-miterlimit="10"/>
<path d="M143.695 300.772C151.393 275.442 155.639 247.652 156.724 242.862C156.774 242.636 156.405 242.578 156.362 242.811C155.542 247.566 147.245 278.798 143.295 300.718C143.252 300.971 143.622 301.017 143.695 300.772Z" fill="black"/>
<path d="M225.253 256.842C222.811 256.423 158.19 238.223 144.057 236.034C143.835 235.999 144.034 235.257 144.267 235.299C187.687 242.959 223.363 254.568 226.096 255.66C229.343 256.947 229.805 257.624 225.253 256.842Z" fill="black"/>
<path d="M200.833 249.005C200.879 248.88 196.572 227.069 195.81 225.708C195.028 224.297 193.333 221.163 192.641 219.701C191.241 216.754 190.028 213.741 188.741 210.755C188.633 210.51 189.006 210.316 189.115 210.565C190.506 213.453 192.147 216.221 193.8 218.955C194.624 220.296 195.444 221.653 196.268 222.983C196.331 223.072 192.291 201.669 191.727 197.913C191.681 197.637 191.984 197.559 192.069 197.793C193.282 201.576 201.754 244.448 202.913 249.195C202.913 249.199 202.112 249.183 200.833 249.005Z" fill="black"/>
<path d="M153.194 312.774C148.976 311.608 132.063 308.875 127.95 308.284C128.354 306.795 129.555 300.741 129.443 299.034C129.431 298.875 129.19 298.778 129.093 298.921C128.132 300.329 126.484 307.774 125.994 309.532C125.901 309.866 148.777 312.739 153.159 312.972C153.283 312.976 153.318 312.809 153.194 312.774Z" fill="black"/>
<path d="M147.533 143.754C147.533 143.754 149.232 160.492 163.108 163.1C176.984 165.705 202.917 147.479 202.917 147.479C202.917 147.479 192.501 133.463 173.687 133.42C155.589 133.373 147.533 143.754 147.533 143.754Z" fill="black" stroke="white" stroke-width="2" stroke-miterlimit="10"/>
<path d="M187.376 139.077C186.634 141.592 173.524 157.439 161.907 156.226C158.124 155.826 159.391 135.08 159.391 135.08L159.135 133.529L155.562 111.791L181.7 97.0519L185.468 95.1196C185.468 95.1196 186.055 101.13 186.708 108.626C186.739 108.972 186.774 109.322 186.801 109.695C186.848 110.119 186.898 110.516 186.925 110.912C187.038 112.032 187.147 113.171 187.233 114.314C187.303 115.181 187.373 116.025 187.411 116.939C187.474 117.856 187.516 118.743 187.579 119.66C187.999 128.688 187.676 138.004 187.376 139.077Z" fill="white"/>
<path d="M186.708 109.241C179.581 125.974 165.538 132.156 159.138 134.147L155.565 112.41L181.704 97.6703L185.471 95.738C185.468 95.7342 186.051 101.745 186.708 109.241Z" fill="white" stroke="black" stroke-width="2.5" stroke-miterlimit="10"/>
<path d="M130.438 71.2092C120.267 108.514 141.46 118.817 149.504 121.002C156.81 122.985 181.934 128.809 195.903 92.7561C209.876 56.7033 195.747 40.1835 179.282 34.7637C162.82 29.3439 140.613 33.9045 130.438 71.2092Z" fill="white" stroke="black" stroke-width="2.5" stroke-miterlimit="10"/>
<path d="M143.874 63.9113C144.78 64.0202 145.636 63.9697 146.545 63.9852C147.568 64.0047 148.384 64.1213 149.282 63.542C149.765 63.231 149.932 62.4067 149.675 61.9091C149.072 60.7543 147.824 60.42 146.592 60.3461C145.255 60.2684 144.205 60.5522 143.12 61.3336C142.063 62.0957 142.677 63.7675 143.874 63.9113Z" fill="black"/>
<path d="M170.46 67.6362C169.597 67.3368 168.85 66.9131 168.03 66.5282C167.101 66.0927 166.319 65.8439 165.767 64.9263C165.472 64.4364 165.686 63.62 166.133 63.2895C167.179 62.5158 168.45 62.7646 169.589 63.2428C170.826 63.7599 171.646 64.4753 172.276 65.6573C172.882 66.8003 171.595 68.0289 170.46 67.6362Z" fill="black"/>
<path d="M161.934 79.5604C161.977 79.4671 162.105 79.7315 162.074 79.8364C161.362 82.3714 160.97 85.3962 163.073 86.8153C163.139 86.858 163.1 86.9863 163.015 86.9513C160.293 85.8588 160.853 81.8465 161.934 79.5604Z" fill="black"/>
<path d="M164.877 77.457C169.064 78.1607 167.346 86.4848 163.469 85.8316C159.648 85.1901 161.366 76.8661 164.877 77.457Z" fill="black"/>
<path d="M166.421 78.2346C167.05 78.8567 167.591 79.8326 168.45 80.1009C169.445 80.4119 170.39 79.6965 171.226 78.9967C171.312 78.9228 171.37 79.0122 171.347 79.1211C171.039 80.719 170.091 82.2314 168.333 82.1148C166.728 82.0098 165.9 80.3652 165.834 78.6818C165.818 78.3668 166.168 77.9819 166.421 78.2346Z" fill="black"/>
<path d="M146.576 74.475C146.576 74.3739 146.347 74.5527 146.328 74.6616C145.853 77.251 144.874 80.1397 142.362 80.4896C142.284 80.5013 142.265 80.6296 142.354 80.6373C145.278 80.8512 146.541 77.006 146.576 74.475Z" fill="black"/>
<path d="M144.858 71.2908C140.787 70.0817 138.669 78.3125 142.444 79.4322C146.153 80.5364 148.272 72.3056 144.858 71.2908Z" fill="black"/>
<path d="M143.004 71.3919C142.242 71.6602 141.394 72.2861 140.605 72.1384C139.687 71.9673 139.252 70.9059 138.898 69.9028C138.863 69.7978 138.777 69.8523 138.746 69.9611C138.299 71.5241 138.396 73.297 139.831 73.9852C141.137 74.615 142.498 73.5264 143.276 72.0567C143.416 71.7846 143.311 71.283 143.004 71.3919Z" fill="black"/>
<path d="M155.344 99.0621C154.625 99.5715 153.87 100.31 152.914 100.24C151.996 100.17 151.001 99.5948 150.223 99.1399C150.146 99.0932 150.049 99.171 150.091 99.2565C150.608 100.361 151.926 101.212 153.167 101.193C154.376 101.173 155.122 100.252 155.577 99.2215C155.639 99.0777 155.449 98.9883 155.344 99.0621Z" fill="black"/>
<path d="M146.623 87.414C146.623 87.414 145.255 91.1386 144.854 92.9504C144.819 93.1214 145.239 93.2964 145.846 93.4675C145.873 93.483 145.888 93.4986 145.916 93.4869C149.007 94.6844 152.471 94.2839 154.986 92.0989C155.15 91.9473 154.959 91.7101 154.772 91.7879C152 93.0204 149.263 92.8959 146.413 92.3205C146.394 91.7918 148.975 86.0182 148.692 85.9365C147.72 85.6333 145.62 85.8821 144.372 85.9676C147 78.1257 150.869 70.7697 153.369 62.92C153.454 62.64 153.062 62.4612 152.922 62.6984C148.326 70.1243 145.099 79.0821 142.175 87.1107C141.802 88.1099 145.83 87.5656 146.623 87.414Z" fill="black"/>
<path d="M146.565 92.896C146.565 92.896 147.657 95.6564 149.772 97.1105C150.55 97.6509 151.448 98.0203 152.486 98.0203C154.625 98.028 155.161 96.2085 155.216 94.5445C155.262 93.1759 154.963 91.9045 154.963 91.9045C154.963 91.9045 151.32 93.8563 146.565 92.896Z" fill="black"/>
<path d="M154.685 94.9866C154.625 95.6161 154.482 96.2015 154.207 96.6467C153.89 97.1603 153.383 97.524 152.488 97.5208H152.486C151.718 97.5208 151.03 97.29 150.403 96.9202C150.762 96.2427 151.379 95.7265 152.146 95.3928C152.914 95.059 153.811 94.9201 154.685 94.9866Z" fill="white" stroke="black"/>
<path d="M193.823 92.1301C189.845 90.7304 182.501 76.5745 187.781 56.9404C187.781 56.9404 184.258 74.8988 184.838 77.8497C185.421 80.7968 180.744 69.895 184.779 54.0011C184.779 54.0011 174.243 57.7996 166.203 57.7491C158.163 57.7024 153.629 56.3261 153.252 55.6341C152.875 54.942 164.815 54.6349 168.757 52.0688C168.757 52.0688 146.324 55.5952 136.997 53.6745C135.916 53.4529 140.885 31.385 157.63 26.2179C174.379 21.0509 193.873 37.4074 198.216 44.9345C198.216 44.9345 204.985 47.9632 209.662 60.5951C214.347 73.227 198.107 93.6386 193.823 92.1301Z" fill="black"/>
<path d="M188.049 92.9504C188.049 92.9504 198.508 82.5851 203.36 86.5236C208.208 90.4621 198.842 106.543 192.085 107.748C185.332 108.953 184.091 102.725 184.091 102.725L188.049 92.9504Z" fill="white" stroke="black" stroke-width="2.5" stroke-miterlimit="10"/>
<path d="M200.561 91.0648C200.666 91.0726 200.658 91.2204 200.565 91.2398C195.802 92.2312 192.723 95.9209 190.312 99.8866C191.929 98.4869 193.889 97.9115 195.802 99.8827C195.903 99.9877 195.759 100.147 195.639 100.097C193.893 99.3772 192.524 99.455 191.031 100.687C189.974 101.558 189.146 102.756 188.306 103.833C188.026 104.191 187.349 103.848 187.583 103.421C187.598 103.39 187.622 103.358 187.637 103.323C188.551 97.6471 194.383 90.5322 200.561 91.0648Z" fill="black"/>
</svg>
