<svg width="332" height="332" viewBox="0 0 332 332" fill="none" xmlns="http://www.w3.org/2000/svg">
<path d="M168.543 43.8041C188.742 31.2744 234.797 95.9015 198.37 133.258C190.269 141.565 187.866 136.485 177.268 138.232C171.299 139.214 168.869 126.618 142.023 134.506C124.374 139.692 126.957 115.476 101.924 121.127C47.2702 133.457 120.861 40.3712 168.55 43.8041H168.543Z" fill="black"/>
<path fill-rule="evenodd" clip-rule="evenodd" d="M172.972 43.6447C170.11 48.6048 162.567 49.7004 155.688 47.5623C148.318 45.2715 144.493 37.257 147.514 30.1589C149.347 25.8495 152.733 22.1378 157.793 20.159C162.853 18.1803 168.49 20.2985 171.04 25.0461C174.273 31.0686 175.429 39.4018 172.979 43.6514L172.972 43.6447Z" fill="black"/>
<path d="M180.701 96.8378C181.298 93.8431 182.56 91.4793 184.16 89.9322C186.497 87.6746 189.592 87.077 192.44 88.6374C194.113 89.5537 195.661 91.2535 196.902 93.8298C195.813 94.9985 194.598 95.4566 193.29 95.5164C190.422 90.211 186.019 91.8046 184.698 97.1432C183.264 97.515 181.936 97.3026 180.701 96.8311V96.8378Z" fill="#FFF8F5"/>
<path d="M181.444 94.2282C182.121 92.4487 183.058 91.0012 184.16 89.9322C186.497 87.6746 189.591 87.077 192.44 88.6374C193.436 89.1818 194.385 90.0052 195.249 91.1207C193.934 91.7847 192.52 92.369 191.026 92.8538C189.293 91.725 187.447 92.2495 186.125 93.9826C184.512 94.2083 182.931 94.288 181.438 94.2216L181.444 94.2282Z" fill="white" stroke="black" stroke-width="2.52" stroke-miterlimit="10"/>
<path fill-rule="evenodd" clip-rule="evenodd" d="M173.277 91.393C171 88.3983 160.163 85.0982 158.284 86.5723C157.773 96.8776 155.728 110.463 153.59 115.735C159.373 117.581 170.847 116.917 175.86 115.609C173.191 110.616 172.759 95.211 173.277 91.3863V91.393Z" fill="white" stroke="#020202" stroke-width="2.52" stroke-miterlimit="10"/>
<path fill-rule="evenodd" clip-rule="evenodd" d="M184.333 71.9577C187.188 71.1675 190.189 73.0267 191.039 76.1011C191.889 79.182 190.269 82.3161 187.414 83.0996C184.558 83.8898 181.557 82.0306 180.707 78.9563C179.857 75.8819 181.478 72.7412 184.333 71.9577Z" fill="white" stroke="#020202" stroke-width="2.52" stroke-miterlimit="10"/>
<path fill-rule="evenodd" clip-rule="evenodd" d="M158.278 86.5723C147.182 92.4023 143.311 70.6098 157.348 76.3932C160.867 70.9418 167.301 69.9126 167.899 60.0389C170.309 59.8729 172.666 59.9127 174.964 60.2182C180.256 60.9154 184.711 64.4678 186.677 69.4345C191.869 82.5551 185.913 95.9945 177.46 98.8364C171.551 100.828 165.024 95.782 158.271 86.579L158.278 86.5723Z" fill="white" stroke="#020202" stroke-width="2.52" stroke-miterlimit="10"/>
<path d="M151.458 80.5233C151.106 80.7291 150.661 80.6162 150.449 80.2643C150.243 79.9124 150.356 79.4675 150.708 79.255C150.841 79.1754 150.98 79.1023 151.12 79.0359C152.102 78.5578 153.178 78.3985 154.207 78.684C155.23 78.9629 156.179 79.6734 156.916 80.915C157.009 81.0678 157.096 81.2338 157.182 81.4064C157.301 81.6255 157.315 81.8978 157.182 82.1302C156.983 82.4821 156.531 82.6016 156.179 82.4024C155.741 82.1501 155.329 81.9841 154.944 81.8845C154.559 81.7849 154.194 81.765 153.869 81.7982C153.464 81.8446 153.105 81.5525 153.059 81.1474C153.012 80.7424 153.304 80.3838 153.709 80.3374C153.928 80.3108 154.147 80.3042 154.38 80.3174C154.201 80.2178 154.015 80.1382 153.822 80.085C153.158 79.8991 152.441 80.0186 151.764 80.344C151.664 80.3905 151.565 80.4436 151.458 80.51V80.5233Z" fill="black"/>
<path d="M157.66 86.9641C157.441 86.6188 157.547 86.1673 157.893 85.9548C158.238 85.7357 158.689 85.8419 158.902 86.1872C160.044 87.9999 161.425 89.8658 163.092 91.6453C164.758 93.4182 166.704 95.1047 168.988 96.5522C169.327 96.7714 169.433 97.2229 169.214 97.5615C168.995 97.9001 168.543 98.0064 168.204 97.7873C165.807 96.2601 163.769 94.5005 162.029 92.6479C160.29 90.7954 158.855 88.8565 157.667 86.9707L157.66 86.9641Z" fill="black"/>
<path d="M140.436 96.6054C142.448 93.7834 144.858 91.9175 147.229 91.0676C150.701 89.8126 154.181 90.636 156.405 93.5842C157.713 95.3106 158.523 97.7939 158.61 101.041C156.936 101.738 155.462 101.652 154.081 101.107C153.583 94.2814 148.278 93.883 144.426 98.7966C142.766 98.511 141.492 97.681 140.429 96.612L140.436 96.6054Z" fill="#FFF8F5"/>
<path d="M142.421 94.2482C143.948 92.721 145.602 91.6519 147.235 91.0676C150.708 89.8126 154.187 90.636 156.412 93.5842C157.188 94.6134 157.786 95.9015 158.165 97.4619C156.498 97.5416 154.758 97.4885 152.985 97.2893C151.717 95.3106 149.559 94.9918 147.388 96.1804C145.608 95.6625 143.942 95.0118 142.421 94.2482Z" fill="white" stroke="black" stroke-width="2.52" stroke-miterlimit="10"/>
<path fill-rule="evenodd" clip-rule="evenodd" d="M169.327 267.851L154.334 267.519L153.284 309.524C166.511 314.729 245.122 316.555 252.293 302.107C196.199 288.554 202.035 243.276 169.327 267.851Z" fill="white" stroke="black" stroke-width="2.52" stroke-miterlimit="10"/>
<path fill-rule="evenodd" clip-rule="evenodd" d="M231.125 310.925C242.001 309.158 250.202 306.33 252.293 302.107C243.469 299.975 236.171 297.054 230.023 293.747C229.359 295.978 229 298.368 229 300.852C229 304.471 229.764 307.89 231.125 310.925Z" fill="white" stroke="#231F20" stroke-width="2.52" stroke-miterlimit="10"/>
<path fill-rule="evenodd" clip-rule="evenodd" d="M181.637 308.82L180.588 266.815C185.004 264.332 239.312 245.746 240.773 242.267C236.61 233.708 235.494 222.4 207.679 215.236C346.628 165.555 340.015 299.982 181.637 308.813V308.82Z" fill="black"/>
<path fill-rule="evenodd" clip-rule="evenodd" d="M180.714 271.888L180.588 266.822C185.004 264.338 239.312 245.753 240.773 242.274C236.61 233.715 235.494 222.407 207.679 215.242C257.094 197.573 288.083 203.204 300.4 218.17C283.907 246.284 237.566 267.565 180.714 271.881V271.888Z" fill="#1C1B1B"/>
<path fill-rule="evenodd" clip-rule="evenodd" d="M156.319 306.615C165.097 296.104 217.586 269.352 214.333 253.05C209.512 228.861 143.125 216.331 124.507 222.168C20.2188 184.891 -14.1631 274.584 82.6215 301.396C102.15 306.808 125.45 307.678 156.312 306.615H156.319Z" fill="black"/>
<path fill-rule="evenodd" clip-rule="evenodd" d="M206.006 268.747C211.73 263.083 215.256 257.652 214.339 253.05C209.519 228.861 143.132 216.331 124.514 222.168C76.181 204.89 42.8747 214.897 30.6704 233.263C55.9489 256.789 104.096 272.692 159.347 272.692C175.655 272.692 191.338 271.304 206.006 268.747Z" fill="#1C1B1B"/>
<path fill-rule="evenodd" clip-rule="evenodd" d="M165.595 267.147L180.588 266.815L181.637 308.82C168.411 314.026 89.7996 315.852 82.6284 301.403C138.723 287.851 132.887 242.572 165.595 267.147Z" fill="white" stroke="black" stroke-width="2.52" stroke-miterlimit="10"/>
<path fill-rule="evenodd" clip-rule="evenodd" d="M103.797 310.221C92.9204 308.455 84.72 305.626 82.6284 301.403C91.453 299.271 98.7503 296.35 104.899 293.043C105.563 295.274 105.922 297.665 105.922 300.148C105.922 303.767 105.158 307.186 103.797 310.221Z" fill="white" stroke="#231F20" stroke-width="2.52" stroke-miterlimit="10"/>
<path fill-rule="evenodd" clip-rule="evenodd" d="M129.407 273.588C141.1 261.463 147.355 253.442 165.595 267.147C161.366 273.375 153.311 277.585 144.068 277.585C138.577 277.585 133.511 276.098 129.407 273.588Z" fill="white" stroke="#231F20" stroke-width="2.52" stroke-miterlimit="10"/>
<path d="M182.195 266.171C181.817 266.324 181.392 266.144 181.239 265.766C181.086 265.388 181.266 264.963 181.644 264.81L249.14 237.28C249.518 237.128 249.943 237.307 250.096 237.685C250.249 238.064 250.069 238.489 249.691 238.642L182.195 266.171Z" fill="white"/>
<path d="M82.5682 241.955C82.1897 241.809 82.0038 241.384 82.1499 241.005C82.296 240.627 82.7209 240.441 83.0994 240.587L138.802 262.194C139.181 262.34 139.367 262.765 139.221 263.143C139.075 263.522 138.65 263.708 138.271 263.562L82.5682 241.955Z" fill="white"/>
<path fill-rule="evenodd" clip-rule="evenodd" d="M189.24 128.139C192.819 123.072 190.86 115.171 189.473 112.057C172.673 111.253 156.85 110.51 143.444 108.67C140.755 112.229 139.135 123.491 142.176 129.619C110.775 134.799 13.6719 220.295 107.528 241.65C273.568 292.758 316.31 181.956 189.233 128.132L189.24 128.139Z" fill="white" stroke="black" stroke-width="2.52" stroke-miterlimit="10"/>
<path d="M145.515 130.669C145.15 130.496 144.991 130.058 145.163 129.692C145.336 129.327 145.774 129.168 146.14 129.341C148.649 130.516 154.127 131.532 159.758 132.123C165.489 132.72 171.338 132.873 174.346 132.289C174.745 132.216 175.13 132.475 175.203 132.873C175.276 133.271 175.017 133.657 174.619 133.73C171.471 134.34 165.455 134.194 159.599 133.584C153.829 132.979 148.171 131.917 145.509 130.669H145.515Z" fill="black"/>
<path d="M124.029 156.817C124.088 156.418 124.467 156.14 124.865 156.199C125.264 156.259 125.542 156.638 125.483 157.036L117.169 215.793C117.11 216.192 116.731 216.471 116.333 216.411C116.014 216.364 115.775 216.112 115.722 215.813C115.556 215.209 114.779 213.456 114.547 212.865C112.316 207.188 107.382 202.972 101.592 200.555C95.7687 198.131 89.1022 197.527 83.425 199.087C82.7078 199.286 81.9974 199.519 81.2935 199.798C80.915 199.944 80.4901 199.758 80.344 199.379C80.1979 199.001 80.3838 198.576 80.7623 198.43C81.4927 198.144 82.2563 197.892 83.0465 197.673C89.0358 196.026 96.0542 196.657 102.163 199.2C108.033 201.644 113.079 205.867 115.596 211.55L124.042 156.817H124.029Z" fill="black"/>
<path d="M202.699 161.691C202.62 161.292 202.872 160.907 203.27 160.821C203.669 160.741 204.054 160.993 204.14 161.392L213.483 206.418C213.562 206.816 213.31 207.201 212.912 207.288C212.513 207.374 212.128 207.115 212.042 206.716L202.699 161.691Z" fill="black"/>
<path fill-rule="evenodd" clip-rule="evenodd" d="M107.535 241.656L116.672 216.424L141.425 222.208L171.04 240.355C169.406 243.183 168.258 245.574 164.088 245.786C166.239 247.851 170.051 248.701 171.498 250.102C169.493 254.91 161.08 253.542 159.891 252.938C152.342 260.985 139.002 251.503 133.922 249.757C130.848 250.062 113.265 248.256 107.542 241.663L107.535 241.656Z" fill="white" stroke="black" stroke-width="2.52" stroke-miterlimit="10"/>
<path d="M138.856 240.361C138.517 240.142 138.411 239.691 138.63 239.352C138.849 239.013 139.301 238.907 139.639 239.126L160.277 252.32C160.615 252.539 160.721 252.991 160.502 253.329C160.283 253.668 159.832 253.774 159.493 253.555L138.856 240.361Z" fill="black"/>
<path d="M141.963 232.407C141.638 232.161 141.572 231.703 141.811 231.377C142.056 231.052 142.515 230.986 142.84 231.225C145.244 233.024 151.12 236.836 156.983 240.521C163.743 244.77 170.462 248.834 171.79 249.432C172.162 249.598 172.328 250.029 172.162 250.401C171.996 250.773 171.565 250.939 171.193 250.773C169.798 250.149 163.006 246.039 156.2 241.769C150.297 238.057 144.38 234.219 141.963 232.413V232.407Z" fill="black"/>
<path d="M145.828 225.767C145.483 225.554 145.37 225.103 145.582 224.757C145.795 224.412 146.246 224.299 146.591 224.512L171.425 239.724C171.77 239.936 171.883 240.388 171.671 240.733C171.458 241.078 171.007 241.191 170.661 240.979L145.828 225.767Z" fill="black"/>
<path fill-rule="evenodd" clip-rule="evenodd" d="M212.215 129.301C215.023 130.868 216.272 133.975 215.003 136.24C213.742 138.504 210.435 139.068 207.633 137.501C204.824 135.934 203.576 132.827 204.844 130.562C206.112 128.298 209.413 127.734 212.215 129.301Z" fill="white" stroke="black" stroke-width="2.52" stroke-miterlimit="10"/>
<path fill-rule="evenodd" clip-rule="evenodd" d="M227.095 134.367C222.692 132.229 210.74 131.233 204.107 132.382C200.422 133.019 202.268 140.224 204.386 140.841C202.806 143.245 202.739 147.368 204.884 150.456C203.682 152.713 204.247 157.308 206.405 159.294C208.656 167.102 212.54 167.408 216.882 167.726L216.657 239.286C258.861 238.323 249.584 189.406 235.82 155.708L227.101 134.36L227.095 134.367Z" fill="white" stroke="black" stroke-width="2.52" stroke-miterlimit="10"/>
<path d="M204.452 141.571C204.047 141.605 203.695 141.306 203.662 140.901C203.629 140.496 203.928 140.144 204.333 140.111C206.61 139.918 209.485 140.031 212.268 140.283C215.853 140.615 219.299 141.18 221.152 141.651C221.544 141.751 221.783 142.149 221.69 142.541C221.597 142.933 221.192 143.172 220.8 143.072C218.987 142.614 215.634 142.056 212.135 141.737C209.439 141.492 206.657 141.386 204.452 141.571Z" fill="black"/>
<path d="M204.944 151.166C204.539 151.199 204.187 150.901 204.154 150.496C204.12 150.091 204.419 149.739 204.824 149.705C207.062 149.513 209.718 149.626 212.288 149.885C215.714 150.223 218.974 150.828 220.86 151.306C221.252 151.405 221.491 151.804 221.398 152.195C221.298 152.587 220.9 152.826 220.508 152.733C218.669 152.268 215.481 151.684 212.148 151.352C209.671 151.106 207.102 150.994 204.95 151.18L204.944 151.166Z" fill="black"/>
<path d="M206.398 160.024C205.993 160.024 205.667 159.692 205.667 159.287C205.667 158.882 205.999 158.557 206.405 158.557C208.875 158.57 211.497 158.756 213.921 159.028C216.604 159.333 219.06 159.758 220.793 160.197C221.185 160.296 221.424 160.695 221.331 161.086C221.232 161.478 220.833 161.717 220.441 161.624C218.762 161.199 216.378 160.788 213.768 160.495C211.371 160.223 208.795 160.044 206.405 160.031L206.398 160.024Z" fill="black"/>
<path fill-rule="evenodd" clip-rule="evenodd" d="M196.531 176.923H301.947L264.936 255.501H159.526L196.531 176.923Z" fill="white"/>
<path d="M196.657 176.186H303.229L265.527 256.238H158.49C171.053 229.551 183.623 202.865 196.192 176.186H196.657ZM300.912 177.66H197.122L160.808 254.77H264.597L300.912 177.66Z" fill="black"/>
<path d="M129.5 256.238C129.095 256.238 128.763 255.906 128.763 255.501C128.763 255.096 129.095 254.764 129.5 254.764H264.942C265.348 254.764 265.68 255.096 265.68 255.501C265.68 255.906 265.348 256.238 264.942 256.238H129.5Z" fill="#1A1A1A"/>
<path d="M230.859 222.467C234.314 222.467 237.114 219.666 237.114 216.212C237.114 212.757 234.314 209.957 230.859 209.957C227.405 209.957 224.604 212.757 224.604 216.212C224.604 219.666 227.405 222.467 230.859 222.467Z" fill="black"/>
</svg>
